<?xml version="1.0" encoding="UTF-8"?>
<svg xmlns="http://www.w3.org/2000/svg" version="1.1" viewBox="0 0 50 50">
  <defs>
    <style>
      .cls-1 {
        fill: #222a55;
      }

      .cls-2 {
        fill: #26ab9a;
      }
    </style>
  </defs>
  <!-- Generator: Adobe Illustrator 28.6.0, SVG Export Plug-In . SVG Version: 1.2.0 Build 709)  -->
  <g>
    <g id="Capa_1">
      <g>
        <path class="cls-1" d="M45.25,11.25c-1.1-1.93-2.75-3.45-4.94-4.54-2.2-1.1-4.88-1.65-8.07-1.65h-13.97c-.98,0-1.77.79-1.77,1.77v2.7c0,.98,1.18,1.46,1.87.77h0c1.15-1.15,2.71-1.79,4.33-1.79h0c1.63,0,3.18.65,4.33,1.8l1.57,1.57c.83.83,1.48,1.84,1.75,2.98.51,2.17-.12,4.31-1.62,5.82l-12.22,12.22s-.02.02-.02.04v10.23c0,.97.79,1.77,1.77,1.77h6.18c.98,0,1.77-.79,1.77-1.77v-10.78c0-.97.79-1.77,1.77-1.77h4.26c3.26,0,5.98-.59,8.18-1.76,2.2-1.17,3.82-2.72,4.89-4.63,1.06-1.91,1.59-4.02,1.59-6.33,0-2.5-.55-4.72-1.65-6.65Z"/>
        <path class="cls-2" d="M22.39,12.72c-.41,0-.82.16-1.13.47l-9.54,9.54c-.31.31-.72.47-1.13.47s-.82-.16-1.13-.47l-1.91-1.91c-.31-.31-.72-.47-1.13-.47s-.82.16-1.13.47l-1.7,1.7c-.63.63-.63,1.64,0,2.27l5.88,5.88c.31.31.72.47,1.13.47s.82-.16,1.13-.47l13.51-13.51c.63-.63.63-1.64,0-2.27l-1.7-1.7c-.31-.31-.72-.47-1.13-.47Z"/>
      </g>
    </g>
  </g>
</svg>