<?xml version="1.0" encoding="UTF-8"?>
<svg xmlns="http://www.w3.org/2000/svg" version="1.1" viewBox="0 0 470 170">
  <defs>
    <style>
      .cls-1 {
        fill: #222a55;
      }

      .cls-2 {
        fill: #26ab9a;
      }
    </style>
  </defs>
  <!-- Generator: Adobe Illustrator 28.6.0, SVG Export Plug-In . SVG Version: 1.2.0 Build 709)  -->
  <g>
    <g id="Capa_1">
      <g>
        <g>
          <path class="cls-1" d="M413.95,82.39c-.18,0-.33-.06-.45-.17s-.17-.24-.17-.37v-7.9c0-.14.06-.26.17-.37s.27-.17.45-.17h2.42c.68,0,1.26.12,1.74.35.48.23.85.56,1.1.97.25.41.37.89.37,1.42,0,.6-.17,1.13-.5,1.59-.33.46-.83.79-1.5.98.32.45.67.97,1.06,1.58.31.46.55.83.72,1.1.17.27.26.44.26.5,0,.14-.06.25-.18.35-.12.09-.26.14-.43.14h-.81c-.12,0-.23-.03-.33-.08-.1-.05-.18-.12-.23-.21l-2.04-3.22h-.4v2.96c0,.14-.06.26-.18.37-.12.11-.27.17-.46.17h-.62ZM416.4,77.29c.45,0,.79-.09,1-.28s.32-.47.32-.85c0-.78-.44-1.16-1.33-1.16h-1.19v2.3h1.19Z"/>
          <path class="cls-1" d="M416.31,69.8c4.49,0,8.13,3.64,8.13,8.13s-3.64,8.13-8.13,8.13-8.13-3.64-8.13-8.13,3.64-8.13,8.13-8.13M416.31,67.77c-5.6,0-10.16,4.56-10.16,10.16s4.56,10.16,10.16,10.16,10.16-4.56,10.16-10.16-4.56-10.16-10.16-10.16h0Z"/>
        </g>
        <g>
          <path class="cls-1" d="M68.85,147.81c-3.1-1.78-5.51-4.29-7.22-7.52-1.71-3.23-2.56-6.97-2.56-11.22s.89-7.94,2.67-11.19c1.78-3.25,4.28-5.76,7.52-7.54,3.23-1.78,6.97-2.67,11.22-2.67,2.98,0,5.72.48,8.22,1.44,2.51.96,4.68,2.33,6.54,4.11.15.11.22.24.22.38s-.07.25-.22.33l-2.12,2.01c-.07.15-.18.22-.33.22s-.29-.07-.44-.22c-3.09-2.8-7.04-4.19-11.87-4.19-3.42,0-6.42.72-9.02,2.15-2.6,1.44-4.61,3.47-6.05,6.1-1.43,2.63-2.15,5.66-2.15,9.07s.68,6.43,2.04,9.04,3.28,4.65,5.75,6.1c2.47,1.45,5.32,2.18,8.55,2.18,4.5,0,8.04-1.22,10.62-3.65,2.58-2.43,4.16-5.94,4.74-10.51h-14.76c-.18,0-.33-.05-.44-.16-.11-.11-.16-.25-.16-.44v-2.67c0-.18.06-.33.19-.44.13-.11.26-.16.41-.16h18.3c.14,0,.27.06.38.19.11.13.16.26.16.41-.11,6.79-1.85,12.08-5.23,15.88-3.38,3.79-8.12,5.67-14.22,5.64-4.07,0-7.65-.89-10.76-2.67Z"/>
          <path class="cls-1" d="M108.2,149.94c-.18,0-.33-.05-.44-.16-.11-.11-.16-.24-.16-.38v-40.58c0-.4.18-.6.54-.6h3.05c.18,0,.33.05.44.16s.16.25.16.44v37.26h14.98c.18,0,.33.05.44.16s.16.25.16.44v2.72c0,.14-.05.27-.16.38s-.24.16-.38.16h-18.63Z"/>
          <path class="cls-1" d="M132.45,117.88c1.78-3.25,4.28-5.76,7.52-7.54,3.23-1.78,6.97-2.67,11.22-2.67s7.99.89,11.22,2.67c3.23,1.78,5.74,4.3,7.52,7.54,1.78,3.25,2.67,6.98,2.67,11.19s-.89,7.99-2.67,11.22c-1.78,3.23-4.29,5.74-7.52,7.52-3.23,1.78-6.97,2.67-11.22,2.67s-7.99-.89-11.22-2.67c-3.23-1.78-5.74-4.29-7.52-7.52-1.78-3.23-2.67-6.97-2.67-11.22s.89-7.94,2.67-11.19ZM136.12,138.14c1.44,2.63,3.45,4.67,6.05,6.1,2.6,1.44,5.6,2.15,9.02,2.15s6.36-.72,8.96-2.15c2.6-1.43,4.6-3.47,6.02-6.1,1.42-2.63,2.12-5.66,2.12-9.07s-.71-6.44-2.12-9.07c-1.42-2.63-3.42-4.67-6.02-6.1-2.6-1.43-5.58-2.15-8.96-2.15s-6.42.72-9.02,2.15c-2.6,1.44-4.61,3.47-6.05,6.1-1.43,2.63-2.15,5.66-2.15,9.07s.72,6.44,2.15,9.07Z"/>
          <path class="cls-1" d="M181.69,149.94c-.18,0-.33-.05-.44-.16-.11-.11-.16-.25-.16-.44v-40.53c0-.4.22-.6.65-.6h11.11c4.21,0,7.5.91,9.86,2.72,2.36,1.82,3.56,4.36,3.59,7.63,0,1.78-.45,3.38-1.36,4.79-.91,1.42-2.2,2.56-3.87,3.43,2.47.91,4.39,2.31,5.75,4.19,1.36,1.89,2.04,4.14,2.04,6.75,0,2.43-.54,4.57-1.63,6.4-1.09,1.84-2.64,3.26-4.66,4.28-2.01,1.02-4.39,1.52-7.11,1.52h-13.78ZM185.28,112.02v13.67h8.34c2.87,0,4.99-.63,6.37-1.91,1.38-1.27,2.07-2.99,2.07-5.17s-.77-3.69-2.31-4.85c-1.54-1.16-3.79-1.74-6.73-1.74h-7.74ZM185.28,128.85v17.27l9.75-.05c2.91,0,5.22-.75,6.95-2.26,1.72-1.51,2.59-3.53,2.59-6.07s-.79-4.76-2.37-6.43c-1.58-1.67-3.79-2.51-6.62-2.51l-10.3.05Z"/>
          <path class="cls-1" d="M213.17,149.94c-.22,0-.36-.06-.44-.19-.07-.13-.07-.28,0-.46l16.56-40.47c.11-.36.36-.54.76-.54h3.16c.4,0,.65.18.76.54l16.5,40.47.11.27c0,.11-.05.2-.14.27-.09.07-.21.11-.35.11h-3.16c-.22,0-.42-.13-.6-.38l-5.28-13.07h-18.9l-5.28,13.07c-.11.25-.33.38-.65.38h-3.05ZM239.54,132.72l-7.84-19.5-7.95,19.5h15.8Z"/>
          <path class="cls-1" d="M257.57,149.94c-.18,0-.33-.05-.44-.16-.11-.11-.16-.24-.16-.38v-40.58c0-.4.18-.6.54-.6h3.05c.18,0,.33.05.44.16s.16.25.16.44v37.26h14.98c.18,0,.33.05.44.16s.16.25.16.44v2.72c0,.14-.05.27-.16.38s-.24.16-.38.16h-18.63Z"/>
        </g>
        <g>
          <path class="cls-2" d="M310.42,40.04v8.3c0,1.2.98,2.18,2.18,2.18h16.06c1.2,0,2.18.98,2.18,2.18v7.41c0,1.2-.98,2.18-2.18,2.18h-16.06c-1.2,0-2.18.98-2.18,2.18v9.37c0,1.2.98,2.18,2.18,2.18h18.74c1.2,0,2.18.98,2.18,2.18v7.86c0,1.2-.98,2.18-2.18,2.18h-33.99c-1.2,0-2.18-.98-2.18-2.18V27.82c0-1.2.98-2.18,2.18-2.18h33.99c1.2,0,2.18.98,2.18,2.18v7.86c0,1.2-.98,2.18-2.18,2.18h-18.74c-1.2,0-2.18.98-2.18,2.18Z"/>
          <path class="cls-2" d="M384.8,29.56c4.93,2.62,8.75,6.29,11.46,11.01,2.7,4.73,4.06,10.18,4.06,16.37s-1.35,11.57-4.06,16.32c-2.71,4.76-6.54,8.44-11.51,11.06-4.96,2.62-10.72,3.92-17.26,3.92h-21.28c-1.2,0-2.18-.98-2.18-2.18V27.82c0-1.2.98-2.18,2.18-2.18h21.28c6.6,0,12.37,1.31,17.3,3.92ZM379.98,70.32c3.21-3.15,4.82-7.61,4.82-13.38s-1.61-10.26-4.82-13.47c-3.21-3.21-7.7-4.81-13.47-4.81h-5.04c-1.2,0-2.18.98-2.18,2.18v32.03c0,1.2.98,2.18,2.18,2.18h5.04c5.77,0,10.26-1.57,13.47-4.73Z"/>
          <path class="cls-1" d="M147.33,77.04h-19.38c-1.19,0-2.24.76-2.62,1.88l-2.47,7.29c-.38,1.12-1.44,1.88-2.62,1.88h-10.02c-1.92,0-3.26-1.91-2.61-3.71l20.64-57.04c.4-1.1,1.44-1.83,2.61-1.83h13.76c1.17,0,2.21.73,2.61,1.83l20.64,57.04c.65,1.81-.68,3.71-2.61,3.71h-10.2c-1.19,0-2.24-.76-2.62-1.88l-2.47-7.29c-.38-1.12-1.44-1.88-2.62-1.88ZM144.15,61.62l-3.88-11.45c-.85-2.51-4.41-2.51-5.25,0l-3.83,11.45c-.6,1.79.73,3.65,2.63,3.65h7.71c1.9,0,3.23-1.86,2.62-3.66Z"/>
          <path class="cls-2" d="M280.83,25.63h-13.93c-.58,0-1.1.35-1.32.89l-14.82,39.69c-.48,1.19-2.16,1.19-2.64,0l-14.97-39.7c-.22-.54-.74-.89-1.32-.89h-3.34l-12.79,24.9v35.5c0,1.16.94,2.1,2.1,2.1h10.25c1.16,0,2.1-.94,2.1-2.1v-27.24c0-1.58,2.2-1.98,2.75-.5l10.15,28.53c.21.56.74.92,1.33.92h9.7c.59,0,1.12-.37,1.33-.92l10.29-28.41c.55-1.48,2.75-1.09,2.75.5v27.9c0,1.16.94,2.1,2.1,2.1h10.25c1.16,0,2.1-.94,2.1-2.1V27.73c0-1.16-.94-2.1-2.1-2.1Z"/>
          <path class="cls-1" d="M216.16,25.52h-10.79c-1.08,0-2.07.63-2.52,1.61l-8.78,19.13c-.49,1.08-1.51,1.61-2.52,1.61s-2.02-.54-2.51-1.61l-8.86-19.14c-.45-.98-1.44-1.61-2.51-1.61h-10.97c-2.08,0-3.41,2.2-2.46,4.04l19.26,37.25c.2.39.31.83.31,1.27v17.24c0,1.53,1.24,2.77,2.77,2.77h9.7c1.53,0,2.77-1.24,2.77-2.77v-17.24c0-.44.11-.88.31-1.27l19.26-37.25c.95-1.84-.39-4.04-2.46-4.04Z"/>
          <path class="cls-1" d="M109.68,35.24c-1.72-3.03-4.31-5.41-7.76-7.13-3.45-1.72-7.66-2.59-12.66-2.59h-21.92c-1.53,0-2.77,1.24-2.77,2.77v4.24c0,1.53,1.85,2.3,2.94,1.22h0c1.8-1.8,4.25-2.82,6.8-2.82h0c2.55,0,5,1.01,6.8,2.82l2.47,2.47c1.3,1.3,2.33,2.89,2.75,4.68.8,3.4-.19,6.77-2.55,9.13l-19.18,19.18s-.03.04-.03.06v16.05c0,1.53,1.24,2.77,2.77,2.77h9.7c1.53,0,2.77-1.24,2.77-2.77v-16.92c0-1.53,1.24-2.77,2.77-2.77h6.68c5.11,0,9.39-.92,12.84-2.76,3.45-1.84,6-4.26,7.67-7.27,1.66-3,2.49-6.31,2.49-9.94,0-3.92-.86-7.4-2.58-10.43Z"/>
          <path class="cls-2" d="M73.8,37.53c-.64,0-1.29.25-1.78.74l-14.97,14.97c-.49.49-1.13.74-1.78.74s-1.29-.25-1.78-.74l-3-3c-.49-.49-1.13-.74-1.78-.74s-1.29.25-1.78.74l-2.67,2.67c-.98.98-.98,2.57,0,3.56l9.23,9.23c.49.49,1.13.74,1.78.74s1.29-.25,1.78-.74l21.2-21.2c.98-.98.98-2.57,0-3.56l-2.67-2.67c-.49-.49-1.13-.74-1.78-.74Z"/>
        </g>
      </g>
    </g>
  </g>
</svg>